<?xml version="1.0" encoding="utf-8"?>
<svg xmlns="http://www.w3.org/2000/svg" viewBox="0 0 128 128" xmlns:bx="https://boxy-svg.com" width="128px" height="128px"><defs><linearGradient gradientUnits="userSpaceOnUse" x1="566.786" y1="404.046" x2="566.786" y2="590.978" id="gradient-0"><stop offset="0" style="stop-color: rgb(0% 0% 0%)"/><stop offset="1" style="stop-color: rgb(0% 0% 0%)"/></linearGradient><linearGradient gradientUnits="userSpaceOnUse" x1="461.365" y1="493.07" x2="461.365" y2="680.001" id="gradient-1"><stop offset="0" style="stop-color: rgb(0% 0% 0%)"/><stop offset="1" style="stop-color: rgb(0% 0% 0%)"/></linearGradient><linearGradient gradientUnits="userSpaceOnUse" x1="566.786" y1="547.909" x2="566.786" y2="734.839" id="gradient-2"><stop offset="0" style="stop-color: rgb(0% 0% 0%)"/><stop offset="1" style="stop-color: rgb(0% 0% 0%)"/></linearGradient></defs><path d="M 35.503 21.876 L 82.355 21.876 C 84.759 21.876 85.358 24.621 84.156 30.124 L 75.147 79.612 C 73.947 85.112 72.144 87.862 69.739 87.862 L 48.116 87.862 C 45.714 87.862 43.913 85.112 42.71 79.612 L 33.7 30.124 C 32.5 24.621 33.098 21.876 35.503 21.876 Z" fill="none" style="stroke-width: 6px;" stroke="currentColor" stroke-linecap="round" stroke-linejoin="round" color="#111" transform="matrix(0.766045, -0.642787, 0.642787, 0.766045, -21.482439, 50.715411)"/><path d="M 68.026 79.976 C 78.48 93.034 88.934 93.034 99.388 79.976" style="stroke-width: 6px;" fill="none" stroke="currentColor" stroke-linecap="round" stroke-linejoin="round" color="#111" transform="matrix(0.766045, -0.642787, 0.642787, 0.766045, -34.971424, 73.662177)"/><path d="M 584.57 446.65 L 584.57 554.03 L 561.5 554.03 L 561.5 472.73 Q 559.6 474.41 557 475.91 Q 554.4 477.41 551.47 478.62 Q 548.54 479.83 545.39 480.67 Q 542.24 481.52 539.16 481.88 L 539.16 462.4 Q 548.17 459.76 556.16 455.66 Q 564.14 451.56 570.58 446.65 Z" transform="matrix(0.175601, 0, 0, 0.127139, 2.733226, 33.383186)" style="fill: url(&quot;#gradient-0&quot;); stroke-dashoffset: -10px; text-wrap-mode: nowrap;"/><path d="M 449.64 623.86 L 494.17 623.86 L 494.17 643.05 L 424.29 643.05 L 424.29 635.14 Q 424.29 627.08 427 620.67 Q 429.71 614.26 433.82 609.17 Q 437.92 604.08 442.79 600.17 Q 447.66 596.25 452.05 593.1 Q 456.67 589.8 460.15 586.8 Q 463.63 583.8 466.01 580.83 Q 468.39 577.86 469.56 574.82 Q 470.73 571.78 470.73 568.34 Q 470.73 561.6 466.92 558.16 Q 463.11 554.72 455.28 554.72 Q 441.73 554.72 429.35 565.49 L 429.35 545.12 Q 443.04 536.26 460.26 536.26 Q 468.24 536.26 474.57 538.35 Q 480.91 540.44 485.3 544.32 Q 489.7 548.2 492.01 553.73 Q 494.31 559.26 494.31 566.07 Q 494.31 573.32 492.08 578.96 Q 489.85 584.6 486.15 589.22 Q 482.45 593.83 477.61 597.68 Q 472.78 601.52 467.58 605.11 Q 464.06 607.6 460.81 610.05 Q 457.55 612.51 455.06 614.89 Q 452.57 617.27 451.1 619.54 Q 449.64 621.81 449.64 623.86 Z" transform="matrix(0.175601, 0, 0, 0.127139, 2.733226, 33.383186)" style="fill: url(&quot;#gradient-1&quot;); stroke-dashoffset: -10px; text-wrap-mode: nowrap;"/><path d="M 532.21 694.45 L 532.21 674.3 Q 542.75 681.99 556.81 681.99 Q 565.68 681.99 570.62 678.19 Q 575.56 674.38 575.56 667.57 Q 575.56 660.53 569.45 656.73 Q 563.33 652.92 552.64 652.92 L 542.9 652.92 L 542.9 635.19 L 551.91 635.19 Q 572.42 635.19 572.42 621.57 Q 572.42 608.75 556.67 608.75 Q 546.12 608.75 536.16 615.56 L 536.16 596.67 Q 547.22 591.1 561.94 591.1 Q 578.05 591.1 587.03 598.35 Q 596 605.6 596 617.18 Q 596 637.76 575.13 642.96 L 575.13 643.32 Q 586.26 644.71 592.7 651.42 Q 599.15 658.12 599.15 667.86 Q 599.15 682.58 588.38 691.15 Q 577.62 699.72 558.65 699.72 Q 542.39 699.72 532.21 694.45 Z" transform="matrix(0.175601, 0, 0, 0.127139, 3.96243, 34.787994)" style="fill: url(&quot;#gradient-2&quot;); stroke-dashoffset: -10px; text-wrap-mode: nowrap;"/><line style="fill: rgb(216, 216, 216); stroke: rgb(0, 0, 0); stroke-linecap: round; stroke-width: 5px;" x1="34.95" y1="43.912" x2="71.211" y2="76.737" transform="matrix(0.999848, 0.017452, -0.017452, 0.999848, 1.060851, -0.917192)"/><line style="fill: rgb(216, 216, 216); stroke: rgb(0, 0, 0); stroke-linecap: round; stroke-width: 5px;" x1="48.118" y1="33.226" x2="84.379" y2="66.051" transform="matrix(0.978148, 0.207912, -0.207912, 0.978148, 11.7681, -12.689159)"/></svg>